PathFileType	4	(X/Y/Z)	C:/Users/opensim2020/Desktop/walking_exp_matlab/subject06_walking23_straight_01.trc																																																																																																																																					
DataRate	CameraRate	NumFrames	NumMarkers	Units	OrigDataRate	OrigDataStartFrame	OrigNumFrames																																																																																																																																	
100	100	8	45	mm	100	751	106																																																																																																																																	
Frame#	Time	LFHD			RFHD			LBHD			RBHD			C7			T10			CLAV			STRN			RBAK			LSHO			LUPA			LELB			LFRM			LWRA			LWRB			LFIN			RSHO			RUPA			RELB			RFRM			RWRA			RWRB			RFIN			LASI			RASI			LPSI			RPSI			LTHI			LKNE			LTIB			LANK			LHEE			LTOE			RTHI			RKNE			RTIB			RANK			RHEE			RTOE			*39			*40			*41			*42			*43			*44		
		X1	Y1	Z1	X2	Y2	Z2	X3	Y3	Z3	X4	Y4	Z4	X5	Y5	Z5	X6	Y6	Z6	X7	Y7	Z7	X8	Y8	Z8	X9	Y9	Z9	X10	Y10	Z10	X11	Y11	Z11	X12	Y12	Z12	X13	Y13	Z13	X14	Y14	Z14	X15	Y15	Z15	X16	Y16	Z16	X17	Y17	Z17	X18	Y18	Z18	X19	Y19	Z19	X20	Y20	Z20	X21	Y21	Z21	X22	Y22	Z22	X23	Y23	Z23	X24	Y24	Z24	X25	Y25	Z25	X26	Y26	Z26	X27	Y27	Z27	X28	Y28	Z28	X29	Y29	Z29	X30	Y30	Z30	X31	Y31	Z31	X32	Y32	Z32	X33	Y33	Z33	X34	Y34	Z34	X35	Y35	Z35	X36	Y36	Z36	X37	Y37	Z37	X38	Y38	Z38	X39	Y39	Z39	X40	Y40	Z40	X41	Y41	Z41	X42	Y42	Z42	X43	Y43	Z43	X44	Y44	Z44	X45	Y45	Z45
																																																																																																																																								
14	0.13	-698.40906	1630.92834	1329.42749	-695.9668	1622.87	1460.98853	-834.05286	1582.86438	1333.11938	-829.68469	1579.54333	1462.45691	-840.77594	1429.10767	1385.36975	-908.81445	1106.52234	1401.25073	-736.5368	1343.62256	1394.60706	-714.09186	1165.01294	1385.68604	-933.22113	1266.89014	1456.91772	-778.68079	1382.64294	1229.59058	-764.71979	1185.67236	1148.32642	-751.56628	1074.50891	1127.87585	-664.45483	953.08942	1108.20178	-554.9032	888.63763	1153.60339	-603.80237	850.3349	1118.79199	-525.69342	804.4212	1119.60913	-792.27881	1379.71326	1551.82922	-893.3252	1206.59766	1632.09631	-927.56555	1090.29968	1649.13989	-969.82153	979.19788	1674.10571	-980.2901	824.78668	1663.49426	-1033.5968	856.24438	1690.84766	-1040.71509	771.99182	1701.08521	-761.97296	930.22162	1285.45337	-744.77002	935.1803	1503.65601	-914.23877	975.34772	1327.98132	-895.14246	969.47455	1494.48169	-889.82941	631.62158	1237.84973	-929.04688	471.15762	1264.05249	-1051.98474	242.05782	1277.46021	-1112.95435	82.12035	1329.44287	-1157.75244	77.47771	1373.81677	-977.31549	39.16462	1332.16016	-724.54565	622.59448	1573.66467	-663.47986	511.1936	1550.66333	-623.17853	253.65918	1537.42212	-571.37524	75.94545	1491.09912	-597.58685	47.93269	1440.22729	-416.42419	72.51037	1507.68127	-795.55707	1674.85205	1389.57214	NaN	NaN	NaN	NaN	NaN	NaN	NaN	NaN	NaN	NaN	NaN	NaN	NaN	NaN	NaN
15	0.14	-685.96466	1629.47144	1330.33069	-683.60645	1621.22595	1461.93518	-821.53571	1580.93835	1333.96924	-817.16748	1577.45435	1463.27991	-827.78247	1427.18225	1386.03699	-895.75067	1104.50073	1401.88562	-723.43127	1341.81445	1395.11694	-700.76221	1163.26831	1385.68945	-919.89386	1264.55261	1457.54138	-766.22858	1381.25464	1230.28528	-751.47675	1184.54626	1148.92029	-737.23724	1073.46362	1128.63574	-647.21033	954.086	1109.68201	-536.58923	892.79535	1155.32837	-584.22266	853.07941	1120.51978	-504.58386	809.41608	1121.64063	-779.00317	1377.54993	1552.50073	-880.58533	1204.89587	1632.80334	-915.35535	1088.75061	1649.95752	-958.11121	977.867	1674.9425	-969.12195	823.47406	1664.27344	-1022.336	855.11865	1691.66504	-1029.90198	770.77631	1701.64917	-749.02728	928.39001	1285.72205	-730.45758	933.39972	1503.77637	-901.42841	972.98334	1328.98804	-881.14154	967.36035	1495.58862	-879.79962	630.75897	1238.19519	-920.85608	470.48425	1264.07288	-1047.98853	243.52615	1277.77222	-1111.77356	84.53779	1329.37781	-1156.52844	80.77548	1373.80493	-976.97797	39.06536	1332.23315	-711.008	619.51508	1574.33276	-650.461	508.1091	1549.70264	-602.25201	252.87271	1537.65088	-542.50085	77.09741	1492.02332	-566.51343	47.02206	1440.81104	-387.11273	79.8968	1508.55237	-783.35486	1672.98059	1390.55408	NaN	NaN	NaN	NaN	NaN	NaN	NaN	NaN	NaN	NaN	NaN	NaN	NaN	NaN	NaN
16	0.15	-673.43457	1628.10559	1331.38818	-671.07245	1619.70959	1462.92126	-808.81995	1579.18652	1334.9043	-804.57227	1575.54517	1464.23975	-815.01624	1425.61609	1387.11523	-882.45221	1102.60364	1402.52661	-709.99078	1340.27148	1395.73926	-687.43756	1161.63367	1385.70825	-906.43359	1262.32056	1458.35522	-753.5946	1379.92969	1231.08154	-738.07776	1183.50012	1149.70007	-723.05768	1072.51672	1129.56653	-630.52203	955.20996	1110.92969	-518.34869	897.0658	1156.96582	-564.9671	855.83905	1122.26428	-484.40601	814.24908	1123.83862	-765.58862	1375.53613	1553.26257	-867.55011	1203.30237	1633.66846	-902.63391	1087.34302	1650.9989	-945.90015	976.56805	1675.93616	-957.3045	822.13403	1665.21167	-1010.48181	853.98535	1692.58997	-1018.31183	769.58331	1702.5177	-736.33215	926.66309	1285.39539	-715.81549	931.73975	1503.76123	-888.2262	970.65076	1330.2511	-866.80872	965.32709	1496.80725	-869.11505	629.81293	1238.51624	-911.94012	469.83017	1264.19287	-1043.22461	245.08383	1278.04468	-1110.40015	87.42495	1329.23828	-1155.18042	84.62404	1373.55933	-976.6897	38.98153	1332.33423	-696.57086	616.97229	1575.62183	-636.92401	505.27954	1548.93848	-582.24518	252.32275	1537.79688	-516.32635	78.53593	1492.63782	-538.5824	46.99197	1441.44556	-361.16956	86.69162	1509.32007	-771.02783	1671.26855	1391.63318	NaN	NaN	NaN	NaN	NaN	NaN	NaN	NaN	NaN	NaN	NaN	NaN	NaN	NaN	NaN
17	0.16	-660.82196	1626.85693	1332.47229	-658.40265	1618.36096	1464.03674	-796.01056	1577.64807	1335.96399	-791.75677	1573.90564	1465.31262	-801.87323	1423.9729	1388.23962	-868.69824	1100.82922	1403.17078	-696.51483	1338.82434	1396.41052	-673.67255	1160.29968	1385.93958	-892.74908	1260.24463	1459.28796	-740.87775	1378.87634	1232.08118	-724.67291	1182.66443	1150.56799	-708.81451	1071.73401	1130.59741	-614.34344	956.34619	1112.26367	-500.91211	900.94147	1158.57642	-546.53546	858.79041	1124.04712	-464.95029	818.99695	1125.82959	-751.91412	1373.70032	1554.18457	-854.19281	1201.8114	1634.72107	-889.69354	1085.95349	1652.1405	-932.88123	975.05304	1677.12048	-944.65094	820.85999	1666.46497	-997.70209	852.70673	1693.84802	-1005.82458	768.35162	1703.56848	-723.1012	925.05334	1285.35852	-701.07648	930.36304	1503.91785	-875.09277	968.67987	1331.5625	-852.35431	963.54541	1498.01501	-858.14282	628.92944	1239.10266	-902.39069	469.19324	1264.27625	-1038.04968	246.94855	1278.17627	-1109.01465	90.78964	1328.86572	-1153.75659	89.16992	1373.03967	-976.41162	38.99186	1332.49121	-681.26233	614.38159	1576.81311	-622.71857	503.05099	1548.2843	-563.4574	251.84142	1538.00354	-493.22833	79.72243	1492.92444	-514.43518	47.35574	1441.77332	-338.31555	92.13486	1509.89844	-758.38617	1669.74744	1392.75696	NaN	NaN	NaN	NaN	NaN	NaN	NaN	NaN	NaN	NaN	NaN	NaN	NaN	NaN	NaN
18	0.17	-647.98914	1625.80017	1333.64624	-645.45001	1617.27161	1465.1908	-783.07629	1576.28699	1337.17505	-778.73651	1572.5072	1466.52856	-788.50104	1422.54333	1389.49365	-854.7323	1099.23706	1403.76929	-682.81677	1337.57312	1397.22424	-659.8172	1159.06091	1386.1554	-878.8075	1258.29333	1460.37292	-727.87146	1378.00366	1233.12476	-711.24402	1181.9823	1151.74756	-694.86273	1071.18005	1131.7334	-598.21295	957.59119	1113.73535	-484.18286	904.78339	1160.52222	-528.70435	861.62952	1125.83191	-446.01019	823.81226	1127.64868	-738.06708	1372.13293	1555.19629	-840.46515	1200.48999	1635.89539	-876.19507	1084.61694	1653.42749	-919.44476	973.78357	1678.49084	-931.21851	819.60596	1667.80432	-984.29407	851.4447	1695.22424	-992.37177	767.01617	1704.84302	-709.4231	923.57214	1285.45813	-686.15204	929.00391	1504.03687	-861.40295	966.7348	1332.92761	-837.55005	962.00623	1499.37451	-846.23798	628.00006	1239.58862	-892.11639	468.54135	1264.30518	-1032.43616	249.14909	1278.15637	-1107.49377	94.83349	1328.16931	-1151.65918	94.24093	1372.41272	-975.99792	38.84503	1332.62317	-665.10706	612.41418	1577.89966	-607.84058	501.20123	1547.52002	-546.11475	251.36876	1537.94983	-473.26563	80.23453	1492.94824	-493.71198	47.26004	1441.75549	-319.01678	95.55096	1510.19666	-745.6601	1668.46899	1393.98657	NaN	NaN	NaN	NaN	NaN	NaN	NaN	NaN	NaN	NaN	NaN	NaN	NaN	NaN	NaN
19	0.18	-634.97552	1624.97192	1334.84363	-632.38593	1616.3988	1466.43701	-769.94348	1575.16895	1338.4574	-765.6001	1571.39014	1467.8678	-774.54742	1421.20581	1390.68445	-840.67059	1097.83472	1404.41541	-668.97046	1336.66541	1398.23291	-645.55585	1158.16919	1386.76855	-864.71484	1256.62036	1461.67859	-714.81506	1377.28943	1234.34949	-697.85443	1181.4696	1152.85645	-680.96832	1070.77234	1132.9563	-582.73291	958.84509	1115.26575	-467.84579	908.38965	1162.16223	-511.15454	864.28088	1127.64319	-427.99133	828.22815	1129.64429	-723.93237	1370.7793	1556.33374	-826.3197	1199.23657	1637.2052	-862.18701	1083.42834	1654.82532	-905.38428	972.5835	1679.90503	-917.11761	818.48621	1669.20715	-970.19312	850.23749	1696.72302	-978.13373	765.73987	1706.40283	-695.50562	922.20258	1285.68445	-671.15051	928.05438	1504.34448	-847.37628	965.08679	1334.21777	-822.35101	960.83105	1500.7085	-833.97882	627.27496	1240.01538	-881.00409	467.95462	1264.28589	-1026.32251	251.75063	1277.90857	-1105.18958	99.23943	1327.32385	-1149.2605	99.99174	1371.44299	-975.62415	38.72073	1332.6709	-648.61786	611.23901	1578.34375	-591.7627	500.97604	1547.0658	-530.16144	250.96155	1537.97656	-456.87561	80.00507	1492.71716	-476.95538	46.54618	1441.3877	-302.871	96.40661	1510.17529	-732.71344	1667.38928	1395.2771	NaN	NaN	NaN	NaN	NaN	NaN	NaN	NaN	NaN	NaN	NaN	NaN	NaN	NaN	NaN
20	0.19	-621.87933	1624.34375	1336.18286	-619.10272	1615.74841	1467.75183	-756.7597	1574.30518	1339.90588	-752.22583	1570.52722	1469.27283	-761.24042	1420.34448	1392.26892	-826.10272	1096.57178	1405.11475	-654.96912	1335.98401	1399.31946	-631.16107	1157.4469	1387.48193	-850.39648	1255.27075	1463.00842	-701.69684	1376.76477	1235.74829	-684.39252	1181.11365	1154.18762	-667.24249	1070.59534	1134.25305	-567.52124	960.18073	1116.77515	-452.07333	911.81244	1163.88452	-494.39297	867.02386	1129.45142	-410.56439	832.40515	1131.59119	-709.70044	1369.74524	1557.55396	-811.81592	1198.15393	1638.68909	-847.61353	1082.30505	1656.36523	-890.58899	971.42377	1681.54871	-902.08313	817.34705	1670.97632	-955.15649	848.89661	1698.4469	-962.93073	764.44312	1708.17944	-681.05249	920.98779	1286.16309	-655.87665	927.29315	1504.8114	-832.78906	963.69312	1335.56189	-807.15039	960.08441	1502.00671	-820.89459	626.58057	1240.41248	-868.96283	467.48016	1264.16907	-1019.39069	254.76807	1277.52979	-1102.39966	104.28637	1326.25989	-1146.37805	106.53522	1370.17651	-975.21643	38.55392	1332.73401	-631.79413	611.10657	1578.86816	-575.2168	501.58307	1546.83813	-515.0473	250.44701	1538.17041	-443.7663	78.81084	1492.25647	-464.25534	45.23178	1441.11536	-289.7236	94.95679	1509.34509	-719.63226	1666.62488	1396.72339	NaN	NaN	NaN	NaN	NaN	NaN	NaN	NaN	NaN	NaN	NaN	NaN	NaN	NaN	NaN
21	0.2	-608.63226	1623.96533	1337.55225	-605.67004	1615.37256	1469.08655	-743.44397	1573.78918	1341.43982	-738.76056	1569.92078	1470.78723	-747.29767	1419.48608	1393.76514	-811.38074	1095.55457	1405.95044	-640.7627	1335.62256	1400.52649	-616.39014	1157.05945	1388.37329	-835.7041	1254.10071	1464.4563	-688.21368	1376.44092	1237.19177	-670.99481	1181.0083	1155.59265	-653.72742	1070.56702	1135.62085	-552.87244	961.57434	1118.2677	-436.96475	914.82733	1165.76001	-478.76077	869.55945	1131.14075	-393.99423	836.38391	1133.23828	-695.28369	1368.97766	1558.95667	-796.90833	1197.22205	1640.24402	-832.44415	1081.34509	1658.00073	-875.14648	970.31561	1683.28345	-886.38586	816.30182	1672.69446	-939.43207	847.68109	1700.27063	-946.96765	763.26044	1710.11304	-666.31805	920.09412	1286.74146	-640.43939	926.91998	1505.69897	-818.15869	962.74969	1336.76416	-792.0423	959.75623	1503.02783	-807.20294	626.06384	1240.83301	-855.98871	467.0502	1264.02222	-1011.62164	258.06531	1277.14697	-1099.27649	110.01749	1325.04663	-1142.80615	114.03551	1368.97681	-974.93945	38.46404	1332.8783	-614.76172	611.70892	1579.55774	-558.2489	503.12927	1546.53699	-501.21637	249.83919	1538.24854	-433.85928	76.70762	1491.67517	-455.26257	43.03279	1440.83484	-280.16418	91.71372	1507.29895	-706.31744	1666.09888	1398.23572	NaN	NaN	NaN	NaN	NaN	NaN	NaN	NaN	NaN	NaN	NaN	NaN	NaN	NaN	NaN
